<svg width="242" height="36" viewBox="0 0 242 36" fill="none" xmlns="http://www.w3.org/2000/svg">
<path d="M0.983398 0V35.7616H34.096V0H0.983398ZM32.1092 33.7748H2.97015V1.98675H32.1092V33.7748Z" fill="#303032"/>
<path d="M13.9268 1.98669H15.185V28.9735H24.0261V30.0787H13.9268V1.98669Z" fill="#303032"/>
<path fill-rule="evenodd" clip-rule="evenodd" d="M10.0685 33.7748V13.9331H10.3731C14.4385 13.9331 17.5636 15.0766 19.7486 17.3635C21.9592 19.6245 23.0645 22.8638 23.0645 27.0814C23.0645 29.4956 22.4928 31.7062 21.3493 33.7132L21.3149 33.7748H22.697C23.7795 31.7271 24.3217 29.496 24.3235 27.0814C24.3235 22.5088 23.0784 18.99 20.5884 16.5251C18.1244 14.0351 14.6182 12.79 10.0698 12.79H8.84863V33.7748H10.0685Z" fill="#303032"/>
<path d="M32.1096 19.849C32.0348 19.849 31.9474 19.849 31.8447 19.849C30.4725 19.849 29.2277 19.5442 28.1103 18.9344C27.0218 18.3288 26.1241 17.4313 25.5182 16.3431C24.8829 15.1991 24.5655 13.8651 24.5659 12.3411V1.98279H23.3076V12.3801C23.3076 14.1082 23.6758 15.6199 24.4123 16.9152C25.1235 18.1859 26.1796 19.2296 27.4586 19.9258C28.7549 20.6119 30.2286 20.955 31.8798 20.955C31.9593 20.955 32.0334 20.955 32.105 20.955L32.1096 19.849Z" fill="#303032"/>
<path d="M241.53 35.2318H233.155L225.111 22.2055L217.068 35.2318H209.212L220.685 17.471L209.947 0.794678H218.037L225.489 13.1841L232.8 0.794678H240.702L229.842 17.8716L241.53 35.2318Z" fill="#303032"/>
<path d="M203.649 35.2318H195.273L187.228 22.2055L179.184 35.2318H171.331L182.801 17.471L172.062 0.794678H180.154L187.607 13.1841L194.918 0.794678H202.821L191.96 17.8716L203.649 35.2318Z" fill="#303032"/>
<path d="M162.854 0.794678V23.1147C162.854 25.6628 162.274 27.8965 161.114 29.8159C159.969 31.7331 158.308 33.2036 156.132 34.2276C153.955 35.2515 151.38 35.7629 148.405 35.7616C143.924 35.7616 140.443 34.6287 137.964 32.3629C135.485 30.0823 134.245 26.9669 134.245 23.0166V0.794678H141.612V21.9114C141.612 24.5693 142.152 26.5198 143.232 27.763C144.312 29.0061 146.101 29.6274 148.596 29.627C151.012 29.627 152.76 29.0057 153.841 27.763C154.938 26.505 155.486 24.5388 155.486 21.8643V0.794678H162.854Z" fill="#303032"/>
<path d="M103.252 35.2311V0.794678H110.618V29.2016H124.709V35.2318L103.252 35.2311Z" fill="#303032"/>
<path d="M74.3771 17.6831C74.3771 23.3519 72.7425 27.694 69.4732 30.7094C66.2202 33.7239 61.515 35.2313 55.3576 35.2318H45.5029V0.794678H56.4291C62.1104 0.794678 66.522 2.27844 69.6638 5.24596C72.8056 8.21348 74.3767 12.3592 74.3771 17.6831ZM66.7123 17.8716C66.7123 10.4767 63.4114 6.77931 56.8095 6.77931H52.8822V29.2021H56.0473C63.1573 29.2021 66.7123 25.4253 66.7123 17.8716Z" fill="#303032"/>
<path d="M87.7537 10.861C86.4177 10.8612 85.1118 11.2498 84.0012 11.9777C82.8905 12.7055 82.0249 13.7399 81.5138 14.95C81.0028 16.1602 80.8692 17.4917 81.13 18.7763C81.3907 20.0608 82.0342 21.2407 82.979 22.1668C83.9237 23.0928 85.1273 23.7234 86.4376 23.9788C87.7479 24.2343 89.1061 24.103 90.3403 23.6018C91.5745 23.1005 92.6294 22.2517 93.3716 21.1626C94.1138 20.0736 94.5099 18.7932 94.5099 17.4835C94.5077 15.7275 93.7951 14.0442 92.5285 12.8026C91.2619 11.5611 89.5447 10.8628 87.7537 10.861ZM91.3698 17.4835C91.3697 18.1846 91.1575 18.87 90.7601 19.4529C90.3626 20.0359 89.7978 20.4902 89.1371 20.7584C88.4763 21.0267 87.7492 21.0968 87.0478 20.9599C86.3463 20.823 85.7021 20.4853 85.1964 19.9895C84.6907 19.4937 84.3464 18.8619 84.2069 18.1742C84.0674 17.4865 84.1391 16.7737 84.4128 16.126C84.6865 15.4782 85.15 14.9245 85.7447 14.535C86.3393 14.1455 87.0385 13.9376 87.7537 13.9376C88.7125 13.9386 89.6318 14.3125 90.3098 14.9773C90.9877 15.6421 91.369 16.5434 91.3698 17.4835Z" fill="#303032"/>
</svg>
