<svg width="151" height="40" viewBox="0 0 151 40" fill="none" xmlns="http://www.w3.org/2000/svg">
<path d="M0.981445 0V40H38.1102V0H0.981445ZM35.8824 37.7778H3.20917V2.22222H35.8824V37.7778Z" fill="#F0F1F0"/>
<path d="M15.4941 2.22217H16.905V32.4074H26.8184V33.6437H15.4941V2.22217Z" fill="#F0F1F0"/>
<path fill-rule="evenodd" clip-rule="evenodd" d="M11.1676 37.778V15.5847H11.5092C16.0676 15.5847 19.5718 16.8637 22.0218 19.4217C24.5005 21.9506 25.7399 25.5738 25.7399 30.2913C25.7399 32.9916 25.0988 35.4642 23.8166 37.7091L23.778 37.778H25.3278C26.5416 35.4876 27.1496 32.9921 27.1515 30.2913C27.1515 25.1768 25.7555 21.241 22.9634 18.4839C20.2005 15.6987 16.2691 14.3062 11.1691 14.3062H9.7998V37.778H11.1676Z" fill="#F0F1F0"/>
<path d="M35.8822 22.2015C35.7983 22.2015 35.7003 22.2015 35.5852 22.2015C34.0466 22.2015 32.6508 21.8605 31.3978 21.1785C30.1774 20.5011 29.1708 19.4973 28.4914 18.28C27.779 17.0005 27.4231 15.5084 27.4236 13.8037V2.21777H26.0127V13.8474C26.0127 15.7802 26.4256 17.4711 27.2513 18.92C28.0489 20.3413 29.233 21.5086 30.6672 22.2874C32.1206 23.0548 33.7731 23.4385 35.6246 23.4385C35.7137 23.4385 35.7969 23.4385 35.8771 23.4385L35.8822 22.2015Z" fill="#F0F1F0"/>
<path d="M150.988 19.1329H146.533L142.254 12.2318L137.975 19.1329H133.796L139.899 9.72353L134.187 0.888672H138.49L142.455 7.45243L146.344 0.888672H150.548L144.771 9.93578L150.988 19.1329Z" fill="#F0F1F0"/>
<path d="M130.94 19.1329H126.485L122.206 12.2318L117.927 19.1329H113.75L119.851 9.72353L114.139 0.888672H118.443L122.407 7.45243L126.296 0.888672H130.5L124.723 9.93578L130.94 19.1329Z" fill="#F0F1F0"/>
<path d="M109.261 0.888672V12.6936C109.261 14.0413 108.954 15.2227 108.342 16.2379C107.738 17.2519 106.861 18.0296 105.712 18.5712C104.563 19.1128 103.203 19.3832 101.633 19.3825C99.2668 19.3825 97.4293 18.7833 96.1203 17.585C94.8116 16.3788 94.1572 14.731 94.1572 12.6418V0.888672H98.0462V12.0572C98.0462 13.463 98.3313 14.4946 98.9017 15.1521C99.472 15.8096 100.416 16.1382 101.734 16.138C103.009 16.138 103.932 15.8093 104.502 15.1521C105.081 14.4868 105.371 13.4468 105.371 12.0323V0.888672H109.261Z" fill="#F0F1F0"/>
<path d="M77.6553 19.1329V0.888672H81.5567V15.9385H89.0198V19.1333L77.6553 19.1329Z" fill="#F0F1F0"/>
<path d="M62.306 9.83588C62.306 12.8391 61.4418 15.1395 59.7133 16.737C57.9934 18.3341 55.5057 19.1327 52.2503 19.1329H47.04V0.888672H52.8168C55.8205 0.888672 58.153 1.67474 59.8141 3.24689C61.4751 4.81904 62.3058 7.01537 62.306 9.83588ZM58.2536 9.93578C58.2536 6.01809 56.5084 4.05924 53.0179 4.05924H50.9415V15.9385H52.6149C56.374 15.9385 58.2536 13.9376 58.2536 9.93578Z" fill="#F0F1F0"/>
<path d="M69.444 6.16748C68.7347 6.16762 68.0414 6.37629 67.4518 6.76711C66.8621 7.15793 66.4025 7.71335 66.1312 8.36314C65.8599 9.01292 65.7889 9.7279 65.9274 10.4176C66.0659 11.1074 66.4075 11.741 66.9091 12.2382C67.4106 12.7354 68.0497 13.0741 68.7453 13.2112C69.441 13.3484 70.162 13.2779 70.8173 13.0087C71.4726 12.7396 72.0326 12.2838 72.4267 11.699C72.8207 11.1143 73.031 10.4268 73.031 9.72348C73.0298 8.78062 72.6515 7.87672 71.9791 7.21008C71.3066 6.54344 70.3949 6.16849 69.444 6.16748ZM71.3639 9.72348C71.3638 10.1 71.2512 10.468 71.0402 10.781C70.8292 11.094 70.5293 11.338 70.1785 11.482C69.8277 11.626 69.4417 11.6637 69.0693 11.5902C68.6969 11.5167 68.3548 11.3353 68.0863 11.0691C67.8179 10.8029 67.6351 10.4637 67.561 10.0944C67.487 9.72513 67.525 9.34239 67.6703 8.99456C67.8156 8.64673 68.0617 8.34944 68.3774 8.14028C68.6931 7.93112 69.0643 7.81948 69.444 7.81948C69.9531 7.82003 70.4412 8.02082 70.8011 8.37778C71.161 8.73474 71.3635 9.21871 71.3639 9.72348Z" fill="#F0F1F0"/>
<path d="M79.0149 37.1153C79.0149 37.9075 78.8093 38.5304 78.3981 38.9841C77.9893 39.4377 77.4199 39.6646 76.6899 39.6646C75.9438 39.6646 75.3674 39.4422 74.9609 38.9976C74.5566 38.5507 74.3545 37.921 74.3545 37.1085C74.3545 36.3027 74.5578 35.6787 74.9643 35.2363C75.3709 34.7917 75.9484 34.5693 76.6968 34.5693C77.4245 34.5693 77.9927 34.795 78.4016 35.2464C78.8105 35.6978 79.0149 36.3208 79.0149 37.1153ZM74.9782 37.1153C74.9782 37.7856 75.1237 38.2946 75.4148 38.6421C75.7081 38.9875 76.1332 39.1601 76.6899 39.1601C77.2512 39.1601 77.6751 38.9875 77.9615 38.6421C78.248 38.2968 78.3912 37.7879 78.3912 37.1153C78.3912 36.4494 78.248 35.945 77.9615 35.6019C77.6774 35.2566 77.2558 35.0839 76.6968 35.0839C76.1355 35.0839 75.7081 35.2577 75.4148 35.6053C75.1237 35.9506 74.9782 36.454 74.9782 37.1153Z" fill="#F0F1F0"/>
<path d="M71.2158 39.5971V34.6475H71.8049V39.5971H71.2158Z" fill="#F0F1F0"/>
<path d="M68.6638 37.0749C68.6638 37.8919 68.4362 38.5171 67.9812 38.9505C67.5284 39.3816 66.8758 39.5971 66.0234 39.5971H64.6201V34.6475H66.1724C66.9601 34.6475 67.5723 34.8607 68.0089 35.2873C68.4455 35.7139 68.6638 36.3098 68.6638 37.0749ZM68.0401 37.0952C68.0401 36.4497 67.8737 35.9633 67.5411 35.636C67.2108 35.3088 66.7187 35.1451 66.065 35.1451H65.2092V39.0994H65.9264C66.6287 39.0994 67.1565 38.9313 67.5099 38.595C67.8633 38.2564 68.0401 37.7565 68.0401 37.0952Z" fill="#F0F1F0"/>
<path d="M61.8568 34.6475V37.8502C61.8568 38.4144 61.6824 38.8579 61.3336 39.1807C60.9848 39.5034 60.5055 39.6648 59.8956 39.6648C59.2858 39.6648 58.8134 39.5023 58.4785 39.1773C58.1458 38.8523 57.9795 38.4054 57.9795 37.8366V34.6475H58.5685V37.8773C58.5685 38.2903 58.684 38.6074 58.915 38.8286C59.146 39.0498 59.4856 39.1604 59.9337 39.1604C60.3611 39.1604 60.6903 39.0498 60.9213 38.8286C61.1523 38.6051 61.2678 38.2858 61.2678 37.8705V34.6475H61.8568Z" fill="#F0F1F0"/>
<path d="M54.2422 39.5971H53.6531V35.1587H52.0488V34.6475H55.8465V35.1587H54.2422V39.5971Z" fill="#F0F1F0"/>
<path d="M50.2278 38.2799C50.2278 38.7156 50.0661 39.0552 49.7427 39.299C49.4193 39.5428 48.9804 39.6646 48.426 39.6646C47.8254 39.6646 47.3634 39.589 47.04 39.4378V38.8826C47.2479 38.9683 47.4743 39.036 47.7192 39.0857C47.964 39.1354 48.2066 39.1602 48.4468 39.1602C48.8395 39.1602 49.1352 39.088 49.3339 38.9435C49.5325 38.7968 49.6319 38.5937 49.6319 38.3341C49.6319 38.1626 49.596 38.0226 49.5244 37.9143C49.4551 37.8037 49.3373 37.7021 49.171 37.6096C49.007 37.5171 48.7564 37.4121 48.4191 37.2948C47.9479 37.13 47.6106 36.9348 47.4073 36.7091C47.2064 36.4834 47.1059 36.1888 47.1059 35.8254C47.1059 35.444 47.2526 35.1404 47.5459 34.9147C47.8393 34.689 48.2274 34.5762 48.7102 34.5762C49.2137 34.5762 49.6769 34.6665 50.0996 34.847L49.916 35.3481C49.4979 35.1765 49.0913 35.0908 48.6963 35.0908C48.3845 35.0908 48.1408 35.1562 47.9652 35.2871C47.7896 35.418 47.7019 35.5997 47.7019 35.8322C47.7019 36.0037 47.7342 36.1448 47.7989 36.2554C47.8636 36.3637 47.9721 36.4642 48.1246 36.5567C48.2794 36.647 48.515 36.7474 48.8314 36.858C49.3627 37.0431 49.7277 37.2417 49.9264 37.4539C50.1273 37.666 50.2278 37.9414 50.2278 38.2799Z" fill="#F0F1F0"/>
<path d="M103.476 30.8051H102.803L100.035 26.6511H100.007C100.044 27.1386 100.063 27.5855 100.063 27.9917V30.8051H99.5186V25.8555H100.184L102.945 29.9926H102.973C102.969 29.9317 102.958 29.7364 102.942 29.4069C102.926 29.0751 102.92 28.8381 102.925 28.6959V25.8555H103.476V30.8051Z" fill="#F0F1F0"/>
<path d="M96.9661 28.3238C96.9661 29.116 96.7605 29.7389 96.3493 30.1926C95.9404 30.6462 95.371 30.8731 94.6411 30.8731C93.8949 30.8731 93.3186 30.6507 92.912 30.2061C92.5078 29.7592 92.3057 29.1295 92.3057 28.317C92.3057 27.5112 92.5089 26.8872 92.9155 26.4448C93.3221 26.0001 93.8996 25.7778 94.648 25.7778C95.3756 25.7778 95.9439 26.0035 96.3528 26.4549C96.7616 26.9063 96.9661 27.5293 96.9661 28.3238ZM92.9294 28.3238C92.9294 28.9941 93.0749 29.503 93.366 29.8506C93.6593 30.196 94.0844 30.3686 94.6411 30.3686C95.2024 30.3686 95.6263 30.196 95.9127 29.8506C96.1992 29.5053 96.3424 28.9963 96.3424 28.3238C96.3424 27.6579 96.1992 27.1535 95.9127 26.8104C95.6286 26.4651 95.207 26.2924 94.648 26.2924C94.0867 26.2924 93.6593 26.4662 93.366 26.8138C93.0749 27.1591 92.9294 27.6624 92.9294 28.3238Z" fill="#F0F1F0"/>
<path d="M89.168 30.8051V25.8555H89.757V30.8051H89.168Z" fill="#F0F1F0"/>
<path d="M85.3789 30.8051H84.7898V26.3667H83.1855V25.8555H86.9832V26.3667H85.3789V30.8051Z" fill="#F0F1F0"/>
<path d="M81.0937 30.8054L80.4631 29.2311H78.4326L77.8089 30.8054H77.2129L79.2157 25.8354H79.7112L81.7035 30.8054H81.0937ZM80.2794 28.7132L79.6904 27.1795C79.6141 26.9854 79.5356 26.7473 79.4547 26.4652C79.4039 26.6818 79.3312 26.9199 79.2364 27.1795L78.6405 28.7132H80.2794Z" fill="#F0F1F0"/>
<path d="M75.1561 25.8555H75.7902L73.9642 30.8051H73.3821L71.5664 25.8555H72.1901L73.3543 29.0582C73.4883 29.4261 73.5946 29.7838 73.6731 30.1314C73.7563 29.7658 73.8649 29.4013 73.9988 29.0379L75.1561 25.8555Z" fill="#F0F1F0"/>
<path d="M69.7102 28.3238C69.7102 29.116 69.5046 29.7389 69.0935 30.1926C68.6846 30.6462 68.1152 30.8731 67.3852 30.8731C66.6391 30.8731 66.0627 30.6507 65.6562 30.2061C65.2519 29.7592 65.0498 29.1295 65.0498 28.317C65.0498 27.5112 65.2531 26.8872 65.6596 26.4448C66.0662 26.0001 66.6437 25.7778 67.3921 25.7778C68.1198 25.7778 68.688 26.0035 69.0969 26.4549C69.5058 26.9063 69.7102 27.5293 69.7102 28.3238ZM65.6735 28.3238C65.6735 28.9941 65.819 29.503 66.1101 29.8506C66.4035 30.196 66.8285 30.3686 67.3852 30.3686C67.9465 30.3686 68.3704 30.196 68.6569 29.8506C68.9433 29.5053 69.0865 28.9963 69.0865 28.3238C69.0865 27.6579 68.9433 27.1535 68.6569 26.8104C68.3727 26.4651 67.9512 26.2924 67.3921 26.2924C66.8308 26.2924 66.4035 26.4662 66.1101 26.8138C65.819 27.1591 65.6735 27.6624 65.6735 28.3238Z" fill="#F0F1F0"/>
<path d="M62.501 30.8051H61.8288L59.0602 26.6511H59.0325C59.0695 27.1386 59.0879 27.5855 59.0879 27.9917V30.8051H58.5439V25.8555H59.2092L61.9708 29.9926H61.9985C61.9939 29.9317 61.9835 29.7364 61.9674 29.4069C61.9512 29.0751 61.9454 28.8381 61.95 28.6959V25.8555H62.501V30.8051Z" fill="#F0F1F0"/>
<path d="M55.9988 30.8051H53.1748V25.8555H55.9988V26.3667H53.7639V27.9613H55.8636V28.4691H53.7639V30.2905H55.9988V30.8051Z" fill="#F0F1F0"/>
<path d="M47.9582 28.7467V30.8051H47.3691V25.8555H48.7586C49.38 25.8555 49.8385 25.9717 50.1342 26.2042C50.4322 26.4367 50.5812 26.7865 50.5812 27.2537C50.5812 27.9082 50.2416 28.3506 49.5625 28.5808L50.9381 30.8051H50.2416L49.015 28.7467H47.9582ZM47.9582 28.2524H48.7655C49.1813 28.2524 49.4863 28.1723 49.6803 28.0121C49.8743 27.8495 49.9714 27.6069 49.9714 27.2842C49.9714 26.9569 49.872 26.721 49.6734 26.5766C49.477 26.4321 49.1605 26.3599 48.724 26.3599H47.9582V28.2524Z" fill="#F0F1F0"/>
</svg>
